<svg width="200" height="35" fill="none" xmlns="http://www.w3.org/2000/svg"><path d="M0 27.1h18.6v-6H6.2V1.9H0V27ZM29.2 7.7a9.6 9.6 0 0 0-9.8 10c0 5.3 3.3 10 9.7 10 4.5 0 8.4-2.3 9.6-6.6h-6c-.7 1-2.2 1.5-3.7 1.4-2.1-.2-3.4-1.5-3.8-2.9h13.6c.7-6.8-3.3-11.9-9.6-11.9Zm0 5.1c1.8 0 3.3.9 3.8 2.5h-7.7c.5-1.5 2-2.5 3.9-2.5ZM54.8 10.6h-.2a7 7 0 0 0-5.8-2.9c-5.1 0-8.7 4.3-8.7 10 0 6 3.8 10 8.7 10a7 7 0 0 0 5.8-2.9h.2v2.3h5.8V8.3h-5.8v2.3Zm-4.4 11.6a4.3 4.3 0 0 1-4.3-4.5c0-2.6 1.8-4.5 4.3-4.5s4.4 2 4.4 4.5c0 2.4-1.8 4.5-4.4 4.5ZM69 8.3c-3.7 0-6.5 2.4-6.5 5.8 0 2.5 2 4.5 4.8 5.1l6.8 1.5c.3 0 .4.2.4.4s-.2.4-.5.4H63.3V27H74c3.6 0 6.5-2.4 6.5-5.9 0-2.6-2-4.6-4.8-5.2L69 14.7c-.1 0-.3-.2-.3-.4s.2-.4.4-.4h10.1V8.3H69ZM82.5 0v6.2h5.8V0h-5.8Zm0 8.3V27h5.8V8.3h-5.8ZM102.8 7.8c-2.1 0-4.1.9-5.4 2.6h-.1V8.3h-5.7V27h5.8v-10c0-2.3 1.8-3.6 3.6-3.6 1.5 0 3.1 1 3.1 3.5V27h5.9v-11c0-5.4-2.8-8.3-7.2-8.3ZM126.3 10.6h-.1a7 7 0 0 0-5.8-2.9c-5.2 0-8.7 4.3-8.7 10 0 6 3.8 10 8.7 10a7 7 0 0 0 5.8-2.9h.1v2.8c0 .7-.5 1.2-1.3 1.2h-10.8v5.8h12.2c3.6 0 5.7-2 5.7-5.5V8.3h-5.8v2.3ZM122 22.2a4.3 4.3 0 0 1-4.4-4.5c0-2.6 1.9-4.5 4.4-4.5 2.5 0 4.3 2 4.3 4.5 0 2.4-1.7 4.5-4.3 4.5Z" fill="#FF9514"/><path d="M154.2 16.6c-.7 3-3.1 5-6.5 5-4.4 0-6.8-3.4-6.8-7.1 0-3.8 2.4-7 6.7-7 3.5-.2 5.8 1.8 6.5 4.6h6.4c-.7-6-5.7-10.8-12.8-10.8-8 0-13 6-13 13.3 0 7.2 5 13 13 13 7.3 0 12.2-4.7 12.9-11h-6.4ZM176.6 10.6h-.1a7 7 0 0 0-5.8-2.9c-5.2 0-8.7 4.3-8.7 10 0 6 3.8 10 8.7 10a7 7 0 0 0 5.8-2.9h.1v2.3h5.8V8.3h-5.8v2.3Zm-4.3 11.6a4.3 4.3 0 0 1-4.4-4.5c0-2.6 1.9-4.5 4.4-4.5 2.5 0 4.3 2 4.3 4.5 0 2.4-1.7 4.5-4.3 4.5ZM195.3 8.3a4 4 0 0 0-4 2.8h-.1V8.3h-5.5V27h5.8v-9.5c0-2 1.5-3.5 3.4-3.5h4.6V8.3h-4.2Z" fill="#111"/></svg>