<svg width="61" height="17" viewBox="0 0 61 17" fill="none" xmlns="http://www.w3.org/2000/svg">
<path d="M20.0382 1H12.9282L10.3182 8.86L7.7082 1H0.448203V16H5.0982V6.31L8.4282 16H12.0582L15.3882 6.37V16H20.0382V1ZM29.383 0.549999C24.763 0.549999 21.523 4 21.523 8.5C21.523 12.7 24.163 16.45 29.293 16.45C32.863 16.45 35.953 14.62 36.913 11.2H32.083C31.603 11.95 30.373 12.43 29.233 12.34C27.493 12.19 26.503 11.17 26.203 10.03H37.003C37.603 4.57 34.393 0.549999 29.383 0.549999ZM29.353 4.63C30.823 4.63 31.993 5.32 32.413 6.58H26.263C26.683 5.38 27.853 4.63 29.353 4.63ZM53.5264 6.82C52.9564 3.16 50.1064 0.549999 45.9064 0.549999C41.0164 0.549999 38.0464 4.03 38.0464 8.5C38.0464 12.97 41.0164 16.45 45.9064 16.45C50.0764 16.45 52.9264 13.84 53.5264 10.21H48.6364C48.2464 11.23 47.2264 11.95 45.9364 11.95C43.8964 11.95 42.6964 10.39 42.6964 8.53C42.6964 6.64 43.8964 5.05 45.9364 5.05C47.2264 5.05 48.2464 5.77 48.6364 6.82H53.5264ZM55.3918 11.05V16H60.1918V11.05H55.3918Z" fill="#575757"/>
</svg>
